<svg width="20" height="20" viewBox="0 0 20 20" fill="none" xmlns="http://www.w3.org/2000/svg">
<rect x="1.01172" y="7.92447" width="5.58821" height="1.64477" fill="#2F3D54"/>
<path fill-rule="evenodd" clip-rule="evenodd" d="M15.6863 5.38885C16.4951 6.64512 16.6421 7.95807 16.6421 7.95807C17.598 8.03725 18.3332 8.90821 18.3332 9.85835V15.7531H16.8627C16.5686 16.7033 15.7598 17.4159 14.7304 17.4159C13.7011 17.4159 12.8923 16.7033 12.5982 15.7531H8.9954C8.7013 16.7033 7.89251 17.4159 6.86314 17.4159C5.83378 17.4159 5.02499 16.7033 4.73088 15.5156H3.11331L3.1133 10.3727H4.5103V14.2487H4.80441C5.17204 13.3778 5.98083 12.8235 6.86314 12.8235C7.81898 12.8235 8.55424 13.3778 8.92188 14.2487H12.6717C13.0393 13.3778 13.8481 12.8235 14.7304 12.8235C15.6863 12.8235 16.4215 13.3778 16.7892 14.2487H16.9362V9.85835C16.9362 9.62081 16.7157 9.46245 16.4951 9.46245H11.7159V4.8346H4.5103V9.53143H3.11329L3.11328 3.33029C3.32648 3.33008 3.99076 3.33014 4.56752 3.33018C4.79317 3.3302 5.00543 3.33022 5.17204 3.33022H10.0983H11.8629H12.01C13.554 3.33022 14.8775 4.13258 15.6863 5.38885ZM14.4363 6.25981C13.9217 5.44098 13.7011 5.30967 13.1864 5.07214V8.03725H14.951C14.951 8.03725 14.951 7.07864 14.4363 6.25981ZM6.05435 15.1197C6.05435 15.5948 6.46548 15.9115 6.86314 15.9115C7.2608 15.9115 7.61964 15.5735 7.61964 15.1197C7.61964 14.6659 7.24493 14.3279 6.86314 14.3279C6.42198 14.3279 6.05435 14.6446 6.05435 15.1197ZM14.7304 15.9115C14.8775 15.9115 15.0981 15.9115 15.2451 15.6739C15.3922 15.5156 15.4657 15.3572 15.4657 15.1197C15.4657 14.8822 15.3922 14.7238 15.2451 14.5654C15.0981 14.4071 14.8775 14.3279 14.7304 14.3279C14.2893 14.3279 13.9217 14.6446 13.9217 15.1197C13.9217 15.5948 14.3628 15.9115 14.7304 15.9115Z" fill="#2F3D54"/>
</svg>
