<svg width="20" height="20" viewBox="0 0 20 20" fill="none" xmlns="http://www.w3.org/2000/svg">
<path d="M10.8335 14.1666L9.16683 14.1666L9.16683 12.4999L10.8335 12.4999L10.8335 14.1666ZM10.8335 10.8333L9.16683 10.8333L9.16683 5.83325L10.8335 5.83325L10.8335 10.8333ZM10.0002 18.3333C14.6002 18.3333 18.3335 14.5999 18.3335 9.99992C18.3335 5.39992 14.6002 1.66659 10.0002 1.66659C5.40016 1.66658 1.66683 5.39992 1.66683 9.99992C1.66683 14.5999 5.40016 18.3333 10.0002 18.3333ZM10.0002 3.33325C13.6752 3.33325 16.6668 6.32492 16.6668 9.99992C16.6668 13.6749 13.6752 16.6666 10.0002 16.6666C6.32516 16.6666 3.33349 13.6749 3.33349 9.99992C3.33349 6.32492 6.32516 3.33325 10.0002 3.33325Z" fill="#333333"/>
</svg>
