<svg width="16" height="16" viewBox="0 0 16 16" fill="none" xmlns="http://www.w3.org/2000/svg">
<path fill-rule="evenodd" clip-rule="evenodd" d="M8 14.8C11.7555 14.8 14.8 11.7555 14.8 8C14.8 4.24446 11.7555 1.2 8 1.2C4.24446 1.2 1.2 4.24446 1.2 8C1.2 11.7555 4.24446 14.8 8 14.8ZM8 16C12.4183 16 16 12.4183 16 8C16 3.58172 12.4183 0 8 0C3.58172 0 0 3.58172 0 8C0 12.4183 3.58172 16 8 16Z" fill="#FE9015"/>
<path d="M5.90279 8.31285C5.34143 8.31285 4.88214 8.11918 4.52491 7.73184C4.17497 7.33706 4 6.81192 4 6.15642C4 5.50093 4.17497 4.97952 4.52491 4.59218C4.88214 4.19739 5.34143 4 5.90279 4C6.46416 4 6.91981 4.19739 7.26974 4.59218C7.61968 4.97952 7.79465 5.50093 7.79465 6.15642C7.79465 6.81192 7.61968 7.33706 7.26974 7.73184C6.91981 8.11918 6.46416 8.31285 5.90279 8.31285ZM10.4629 4.08939H11.7643L6.53706 11.9106H5.23572L10.4629 4.08939ZM5.90279 7.39665C6.15067 7.39665 6.34386 7.29236 6.48238 7.0838C6.62819 6.87523 6.70109 6.56611 6.70109 6.15642C6.70109 5.74674 6.62819 5.43762 6.48238 5.22905C6.34386 5.02048 6.15067 4.9162 5.90279 4.9162C5.66221 4.9162 5.46902 5.02421 5.32321 5.24022C5.1774 5.44879 5.1045 5.75419 5.1045 6.15642C5.1045 6.55866 5.1774 6.86778 5.32321 7.0838C5.46902 7.29236 5.66221 7.39665 5.90279 7.39665ZM11.0972 12C10.7327 12 10.4046 11.9143 10.113 11.743C9.82868 11.5642 9.60632 11.311 9.44593 10.9832C9.28554 10.6555 9.20535 10.2756 9.20535 9.84358C9.20535 9.41155 9.28554 9.03166 9.44593 8.70391C9.60632 8.37616 9.82868 8.12663 10.113 7.95531C10.4046 7.77654 10.7327 7.68715 11.0972 7.68715C11.6586 7.68715 12.1142 7.88454 12.4642 8.27933C12.8214 8.66667 13 9.18808 13 9.84358C13 10.4991 12.8214 11.0242 12.4642 11.419C12.1142 11.8063 11.6586 12 11.0972 12ZM11.0972 11.0838C11.3451 11.0838 11.5383 10.9795 11.6768 10.7709C11.8226 10.5549 11.8955 10.2458 11.8955 9.84358C11.8955 9.44134 11.8226 9.13594 11.6768 8.92737C11.5383 8.71136 11.3451 8.60335 11.0972 8.60335C10.8566 8.60335 10.6634 8.70763 10.5176 8.9162C10.3718 9.12477 10.2989 9.43389 10.2989 9.84358C10.2989 10.2533 10.3718 10.5624 10.5176 10.7709C10.6634 10.9795 10.8566 11.0838 11.0972 11.0838Z" fill="#FE9015"/>
</svg>
